<?xml version="1.0" standalone="no"?>
<!DOCTYPE svg PUBLIC "-//W3C//DTD SVG 20010904//EN"
 "http://www.w3.org/TR/2001/REC-SVG-20010904/DTD/svg10.dtd">
<svg version="1.0" xmlns="http://www.w3.org/2000/svg"
 width="982.000000pt" height="982.000000pt" viewBox="0 0 982.000000 982.000000"
 preserveAspectRatio="xMidYMid meet">
<metadata>
Created by potrace 1.14, written by Peter Selinger 2001-2017
</metadata>
<g transform="translate(0.000000,982.000000) scale(0.100000,-0.100000)"
fill="#000000" stroke="none">
<path d="M3970 9810 c-457 -7 -481 -10 -607 -65 -124 -55 -265 -172 -348 -289
-19 -27 -57 -92 -84 -145 l-49 -96 -4 -517 -4 -518 408 0 408 0 0 410 0 410
1220 0 1220 0 0 -410 0 -410 408 0 408 0 -4 518 -4 517 -46 90 c-61 123 -114
198 -193 275 -85 83 -198 150 -319 191 l-95 32 -485 8 c-551 9 -1209 8 -1830
-1z"/>
<path d="M1795 7760 c-1291 -8 -1187 -1 -1331 -79 -257 -139 -411 -356 -443
-626 -13 -111 -15 -1498 -1 -1667 7 -97 13 -126 35 -165 27 -50 82 -114 119
-138 34 -22 335 -131 831 -300 593 -202 3061 -1025 3075 -1025 7 0 10 187 10
575 l0 575 820 0 820 0 0 -575 c0 -472 2 -575 13 -575 31 0 3282 1092 3680
1236 215 78 250 97 298 161 59 78 69 106 79 221 14 156 13 1597 -1 1697 -21
156 -97 308 -217 436 -91 97 -188 163 -307 208 l-90 34 -1375 8 c-1572 9
-4315 8 -6015 -1z"/>
<path d="M428 2593 l3 -1978 53 -110 c30 -61 78 -141 107 -178 101 -131 271
-243 435 -287 78 -21 92 -22 2039 -32 2240 -12 5610 2 5700 23 135 32 267 104
373 204 89 84 144 159 205 280 l45 90 4 1983 c2 1354 0 1981 -7 1979 -5 -2
-824 -275 -1820 -607 -995 -331 -1814 -606 -1818 -610 -4 -4 -15 -57 -23 -117
-17 -135 -43 -224 -95 -324 -107 -207 -322 -376 -536 -423 -104 -23 -280 -21
-379 4 -229 58 -420 214 -533 437 -42 83 -79 216 -91 327 -6 50 -14 94 -18 97
-4 4 -821 278 -1817 609 -995 332 -1814 605 -1820 607 -7 2 -9 -659 -7 -1974z"/>
<path d="M4500 3845 l0 -645 40 -81 c47 -92 104 -159 169 -197 43 -25 55 -27
189 -30 138 -4 145 -3 197 22 70 35 141 113 188 209 l37 77 0 645 0 645 -410
0 -410 0 0 -645z m491 -386 c69 -35 119 -114 119 -189 0 -32 -41 -120 -66
-142 -87 -77 -233 -57 -295 40 -36 57 -45 104 -30 160 17 63 48 99 115 133 66
32 90 32 157 -2z"/>
</g>
</svg>
